# xmcd
#
# Track frame offsets: 
#        150
#        10796
#        21588
#        32024
#        43943
#        56610
#        69508
#        82883
#        97794
#        111297
#        123605
#        136421
#        148643
#        159824
#        174712
#        185439
#        201095
#        213506
#
# Disc length: 3023 seconds
#
# Revision: 0
# Processed by: cddbd v1.5.2PL0 Copyright (c) Steve Scherf et al.
# Submitted via: ExactAudioCopy v1.5
#
DISCID=fa0bcd12
DTITLE=John Glenn - The Hills of Kerry
DYEAR=2006
DGENRE=Country
TTITLE0=On My Mind
TTITLE1=Where My Eileen Is Waiting
TTITLE2=Wagon Load Of Love
TTITLE3=I Can't Help It If Im Still In Love With You
TTITLE4=Sweet Little Miss Blue Eyes
TTITLE5=Hills Of Kerry
TTITLE6=Four Country Roads
TTITLE7=Farewell To Galway
TTITLE8=The Tender Years
TTITLE9=Tonight The Bottle Let Me Down
TTITLE10=Sunny Side Of The Mountain
TTITLE11=Amanda
TTITLE12=Our House Is A Home
TTITLE13=Noreen Bawn
TTITLE14=Signed, Sealed and Delivered
TTITLE15=Crying My Heart Out Over You
TTITLE16=Running Kind
TTITLE17=Walk Tali
EXTD=
EXTT0=
EXTT1=
EXTT2=
EXTT3=
EXTT4=
EXTT5=
EXTT6=
EXTT7=
EXTT8=
EXTT9=
EXTT10=
EXTT11=
EXTT12=
EXTT13=
EXTT14=
EXTT15=
EXTT16=
EXTT17=
PLAYORDER=
